<?xml version="1.0" standalone="no"?><!DOCTYPE svg PUBLIC "-//W3C//DTD SVG 1.1//EN" "http://www.w3.org/Graphics/SVG/1.1/DTD/svg11.dtd"><svg t="1736152922404" class="icon" viewBox="0 0 1024 1024" version="1.1" xmlns="http://www.w3.org/2000/svg" p-id="7440" width="256" height="256" xmlns:xlink="http://www.w3.org/1999/xlink"><path d="M512 0C230.4 0 0 230.4 0 512s230.4 512 512 512 512-230.4 512-512S793.6 0 512 0z m238.933333 443.733333c0 4.266667-4.266667 12.8-8.533333 17.066667-21.333333 46.933333-76.8 136.533333-76.8 136.533333l-17.066667 29.866667H725.333333l-149.333333 200.533333 34.133333-136.533333h-64l21.333334-89.6c-17.066667 4.266667-38.4 8.533333-64 17.066667 0 0-34.133333 17.066667-93.866667-38.4 0 0-42.666667-38.4-17.066667-46.933334 8.533333-4.266667 51.2-8.533333 81.066667-12.8 42.666667-4.266667 68.266667-8.533333 68.266667-8.533333s-132.266667 0-162.133334-4.266667c-29.866667-4.266667-68.266667-55.466667-76.8-102.4 0 0-12.8-25.6 29.866667-12.8 38.4 12.8 209.066667 46.933333 209.066667 46.933334s-221.866667-68.266667-234.666667-85.333334c-17.066667-12.8-42.666667-85.333333-38.4-132.266666 0 0 0-12.8 12.8-8.533334 0 0 162.133333 72.533333 273.066667 115.2 110.933333 42.666667 209.066667 64 196.266666 115.2z" fill="#3296FA" p-id="7441"></path></svg>